# xmcd
#
# Track frame offsets:
# 150
# 21183
# 38839
# 62879
# 83154
# 115128
# 136236
# 159431
# 177105
# 195738
# 209915
# 238739
# 260840
# 293966
# 313421
# 330314
#
# Disc length: 4668 seconds
#
#
# Revision: 0
# Processed by: cddbd v1.5.1PL2 Copyright (c) Steve Scherf et al.
# Submitted via: FreeRIP 2.944 
#
DISCID=f1123a10
DTITLE=Eric Clapton - The Very Greatest Collections
DYEAR=1900
DGENRE=
TTITLE0=Blue Eyes Blue
TTITLE1=Change The World
TTITLE2=My Father's Eyes
TTITLE3=Tears In Heaven
TTITLE4=Layla
TTITLE5=Pretending
TTITLE6=Bad Love
TTITLE7=Before You Accuse Me (take A Look At Yourself)
TTITLE8=It's In The Way That You Use It
TTITLE9=Forever Man
TTITLE10=Running Of Faith
TTITLE11=She's Waiting
TTITLE12=River Of Tears
TTITLE13=(i) Get Lost
TTITLE14=Wonderful Tonight
TTITLE15=Knockin' On Heaven Door
EXTD=
EXTT0=
EXTT1=
EXTT2=
EXTT3=
EXTT4=
EXTT5=
EXTT6=
EXTT7=
EXTT8=
EXTT9=
EXTT10=
EXTT11=
EXTT12=
EXTT13=
EXTT14=
EXTT15=
PLAYORDER=
